G04 AWR Design Environment 19.01 *
G04 RS274-X Output Version 0.1 *
%FSLAX36Y36*%
%MOMM*%
%ADD10C,.010*%

%LPD*%
G36*
X-4960001Y-17809866D02*
G01*
X-3210001D01*
Y-19309866D01*
X-7710001D01*
Y-17809866D01*
X-5960001D01*
Y-15299866D01*
X-4960001D01*
Y-17809866D01*
G37*
G36*
X-7800001Y8482134D02*
Y-11989866D01*
X-7500001D01*
Y-14499866D01*
X-8500001D01*
Y-11996999D01*
X-9000001D01*
Y-11096999D01*
X-8200001D01*
Y7575134D01*
X-9000001D01*
Y8475134D01*
X-8200001D01*
Y8982134D01*
X-7800001D01*
Y8482134D01*
G37*
G36*
X-10500001Y-11096999D02*
X-9900001D01*
Y-11996999D01*
X-10500001D01*
Y-13796999D01*
X-12000001D01*
Y-9296999D01*
X-10500001D01*
Y-11096999D01*
G37*
G36*
X16100000Y8932133D02*
Y8892133D01*
X16424999D01*
Y8572133D01*
X16100000D01*
Y8532133D01*
X14100000Y6532133D01*
Y-6467867D01*
X9700000D01*
Y6532133D01*
X-3500000D01*
X-5000000Y8532133D01*
X-6500000D01*
Y8482133D01*
X-6900000D01*
Y8982133D01*
X-6500000D01*
Y8932133D01*
X-5000000D01*
X-3500000Y10932133D01*
X14100000D01*
X16100000Y8932133D01*
G37*
G36*
X-10200000Y10882000D02*
Y10907000D01*
X-9600000D01*
Y10357000D01*
X-10200000D01*
Y10382000D01*
X-14200000Y8432000D01*
X-15700000D01*
Y-5568000D01*
X-20100000D01*
Y8432000D01*
X-22100000D01*
X-24100000Y10357000D01*
X-24700000D01*
Y10907000D01*
X-24100000D01*
X-22100000Y12832000D01*
X-14200000D01*
X-10200000Y10882000D01*
G37*
G36*
X27000000Y5557133D02*
Y4057133D01*
X22300000D01*
Y6757133D01*
X27000000D01*
Y5557133D01*
G37*
G36*
X-26800000Y7457000D02*
Y5957000D01*
X-31500000D01*
Y8657000D01*
X-26800000D01*
Y7457000D01*
G37*
G36*
X17899999Y7972133D02*
X17350000D01*
Y7219230D01*
X17357483Y7213990D01*
X17406857Y7164616D01*
X17412097Y7157133D01*
X18287903D01*
X18293143Y7164616D01*
X18342517Y7213990D01*
X18399714Y7254039D01*
X18462995Y7283548D01*
X18530441Y7301620D01*
X18600000Y7307706D01*
X18669559Y7301620D01*
X18737005Y7283548D01*
X18800286Y7254039D01*
X18857483Y7213990D01*
X18906857Y7164616D01*
X18946906Y7107419D01*
X18976415Y7044138D01*
X18994487Y6976692D01*
X19000573Y6907133D01*
X18994487Y6837574D01*
X18976415Y6770128D01*
X18946906Y6706847D01*
X18906857Y6649650D01*
X18857483Y6600276D01*
X18800286Y6560227D01*
X18737005Y6530718D01*
X18669559Y6512646D01*
X18600000Y6506560D01*
X18530441Y6512646D01*
X18462995Y6530718D01*
X18399714Y6560227D01*
X18342517Y6600276D01*
X18293143Y6649650D01*
X18287903Y6657133D01*
X17412097D01*
X17406857Y6649650D01*
X17357483Y6600276D01*
X17300286Y6560227D01*
X17237005Y6530718D01*
X17169559Y6512646D01*
X17100000Y6506560D01*
X17030441Y6512646D01*
X16962995Y6530718D01*
X16899714Y6560227D01*
X16842517Y6600276D01*
X16793143Y6649650D01*
X16787903Y6657133D01*
X15912097D01*
X15906857Y6649650D01*
X15857483Y6600276D01*
X15800286Y6560227D01*
X15737005Y6530718D01*
X15669559Y6512646D01*
X15600000Y6506560D01*
X15530441Y6512646D01*
X15462995Y6530718D01*
X15399714Y6560227D01*
X15342517Y6600276D01*
X15293143Y6649650D01*
X15253094Y6706847D01*
X15223585Y6770128D01*
X15205513Y6837574D01*
X15199427Y6907133D01*
X15205513Y6976692D01*
X15223585Y7044138D01*
X15253094Y7107419D01*
X15293143Y7164616D01*
X15342517Y7213990D01*
X15399714Y7254039D01*
X15462995Y7283548D01*
X15530441Y7301620D01*
X15600000Y7307706D01*
X15669559Y7301620D01*
X15737005Y7283548D01*
X15800286Y7254039D01*
X15857483Y7213990D01*
X15906857Y7164616D01*
X15912097Y7157133D01*
X16787903D01*
X16793143Y7164616D01*
X16842517Y7213990D01*
X16850000Y7219230D01*
Y7972133D01*
X16299999D01*
Y8372133D01*
X17899999D01*
Y7972133D01*
G37*
G36*
X-4900001Y11272001D02*
X-4950001D01*
Y9432131D01*
X-5450001D01*
Y9432134D01*
X-5547368D01*
X-5552608Y9424651D01*
X-5601982Y9375277D01*
X-5659179Y9335228D01*
X-5722460Y9305719D01*
X-5789906Y9287647D01*
X-5859465Y9281561D01*
X-5929024Y9287647D01*
X-5996470Y9305719D01*
X-6059751Y9335228D01*
X-6116948Y9375277D01*
X-6166322Y9424651D01*
X-6171562Y9432134D01*
X-7047368D01*
X-7052608Y9424651D01*
X-7101982Y9375277D01*
X-7159179Y9335228D01*
X-7222460Y9305719D01*
X-7232465Y9303038D01*
Y8982073D01*
X-7159465D01*
Y8482073D01*
X-7559465D01*
Y8982073D01*
X-7486465D01*
Y9303038D01*
X-7496470Y9305719D01*
X-7559751Y9335228D01*
X-7616948Y9375277D01*
X-7666322Y9424651D01*
X-7671468Y9432000D01*
X-8547368D01*
X-8552608Y9424517D01*
X-8601982Y9375143D01*
X-8659179Y9335094D01*
X-8722460Y9305585D01*
X-8789906Y9287513D01*
X-8859465Y9281427D01*
X-8929024Y9287513D01*
X-8996470Y9305585D01*
X-9059751Y9335094D01*
X-9116948Y9375143D01*
X-9166322Y9424517D01*
X-9171562Y9432000D01*
X-9950001D01*
Y8475134D01*
X-9900001D01*
Y7575134D01*
X-10500001D01*
Y8475134D01*
X-10450001D01*
Y9932000D01*
X-9171562D01*
X-9166322Y9939483D01*
X-9116948Y9988857D01*
X-9059751Y10028906D01*
X-8996470Y10058415D01*
X-8929024Y10076487D01*
X-8859465Y10082573D01*
X-8789906Y10076487D01*
X-8722460Y10058415D01*
X-8659179Y10028906D01*
X-8601982Y9988857D01*
X-8552608Y9939483D01*
X-8547368Y9932000D01*
X-7671655D01*
X-7666322Y9939617D01*
X-7616948Y9988991D01*
X-7559751Y10029040D01*
X-7496470Y10058549D01*
X-7486465Y10061230D01*
Y10382006D01*
X-7559465D01*
Y10882006D01*
X-7159465D01*
Y10382006D01*
X-7232465D01*
Y10061230D01*
X-7222460Y10058549D01*
X-7159179Y10029040D01*
X-7101982Y9988991D01*
X-7052608Y9939617D01*
X-7047368Y9932134D01*
X-6171562D01*
X-6166322Y9939617D01*
X-6116948Y9988991D01*
X-6059751Y10029040D01*
X-5996470Y10058549D01*
X-5929024Y10076621D01*
X-5859465Y10082707D01*
X-5789906Y10076621D01*
X-5722460Y10058549D01*
X-5659179Y10029040D01*
X-5601982Y9988991D01*
X-5552608Y9939617D01*
X-5547368Y9932134D01*
X-5450001D01*
Y11272001D01*
X-5500001D01*
Y12172001D01*
X-4900001D01*
Y11272001D01*
G37*
G36*
X27000000Y8232133D02*
X22300000D01*
Y8457133D01*
X20700000D01*
Y9007133D01*
X22300000D01*
Y9232133D01*
X27000000D01*
Y8232133D01*
G37*
G36*
X20200000Y8457133D02*
X19600000D01*
Y8572133D01*
X17774999D01*
Y8892133D01*
X19600000D01*
Y9007133D01*
X20200000D01*
Y8457133D01*
G37*
G36*
X18669559Y10951620D02*
X18737005Y10933548D01*
X18800286Y10904039D01*
X18857483Y10863990D01*
X18906857Y10814616D01*
X18946906Y10757419D01*
X18976415Y10694138D01*
X18994487Y10626692D01*
X19000573Y10557133D01*
X18994487Y10487574D01*
X18976415Y10420128D01*
X18946906Y10356847D01*
X18906857Y10299650D01*
X18857483Y10250276D01*
X18800286Y10210227D01*
X18737005Y10180718D01*
X18669559Y10162646D01*
X18600000Y10156560D01*
X18530441Y10162646D01*
X18462995Y10180718D01*
X18399714Y10210227D01*
X18342517Y10250276D01*
X18293143Y10299650D01*
X18287903Y10307133D01*
X17412097D01*
X17406857Y10299650D01*
X17357483Y10250276D01*
X17350000Y10245036D01*
Y9492133D01*
X17899999D01*
Y9092133D01*
X16299999D01*
Y9492133D01*
X16850000D01*
Y10245036D01*
X16842517Y10250276D01*
X16793143Y10299650D01*
X16787903Y10307133D01*
X15912097D01*
X15906857Y10299650D01*
X15857483Y10250276D01*
X15800286Y10210227D01*
X15737005Y10180718D01*
X15669559Y10162646D01*
X15600000Y10156560D01*
X15530441Y10162646D01*
X15462995Y10180718D01*
X15399714Y10210227D01*
X15342517Y10250276D01*
X15293143Y10299650D01*
X15253094Y10356847D01*
X15223585Y10420128D01*
X15205513Y10487574D01*
X15199427Y10557133D01*
X15205513Y10626692D01*
X15223585Y10694138D01*
X15253094Y10757419D01*
X15293143Y10814616D01*
X15342517Y10863990D01*
X15399714Y10904039D01*
X15462995Y10933548D01*
X15530441Y10951620D01*
X15600000Y10957706D01*
X15669559Y10951620D01*
X15737005Y10933548D01*
X15800286Y10904039D01*
X15857483Y10863990D01*
X15906857Y10814616D01*
X15912097Y10807133D01*
X16787903D01*
X16793143Y10814616D01*
X16842517Y10863990D01*
X16899714Y10904039D01*
X16962995Y10933548D01*
X17030441Y10951620D01*
X17100000Y10957706D01*
X17169559Y10951620D01*
X17237005Y10933548D01*
X17300286Y10904039D01*
X17357483Y10863990D01*
X17406857Y10814616D01*
X17412097Y10807133D01*
X18287903D01*
X18293143Y10814616D01*
X18342517Y10863990D01*
X18399714Y10904039D01*
X18462995Y10933548D01*
X18530441Y10951620D01*
X18600000Y10957706D01*
X18669559Y10951620D01*
G37*
G36*
X-26800000Y10907000D02*
X-25200000D01*
Y10357000D01*
X-26800000D01*
Y10132000D01*
X-31500000D01*
Y11132000D01*
X-26800000D01*
Y10907000D01*
G37*
G36*
X-8500000Y10832000D02*
X-8200000D01*
Y10882000D01*
X-7800000D01*
Y10382000D01*
X-8200000D01*
Y10432000D01*
X-8500000D01*
Y10357000D01*
X-9100000D01*
Y10907000D01*
X-8500000D01*
Y10832000D01*
G37*
G36*
X-6400001Y11272001D02*
X-6500001D01*
Y10382001D01*
X-6900001D01*
Y11272001D01*
X-7000001D01*
Y12172001D01*
X-6400001D01*
Y11272001D01*
G37*
G36*
X27000000Y11907133D02*
Y10707133D01*
X22300000D01*
Y13407133D01*
X27000000D01*
Y11907133D01*
G37*
G36*
X-26800000Y13807000D02*
Y12607000D01*
X-31500000D01*
Y15307000D01*
X-26800000D01*
Y13807000D01*
G37*
G36*
X-3850442Y-18115379D02*
X-3782996Y-18133451D01*
X-3719715Y-18162960D01*
X-3662518Y-18203009D01*
X-3613144Y-18252383D01*
X-3573095Y-18309580D01*
X-3543586Y-18372861D01*
X-3525514Y-18440307D01*
X-3519428Y-18509866D01*
X-3525514Y-18579425D01*
X-3543586Y-18646871D01*
X-3573095Y-18710152D01*
X-3613144Y-18767349D01*
X-3662518Y-18816723D01*
X-3719715Y-18856772D01*
X-3782996Y-18886281D01*
X-3850442Y-18904353D01*
X-3920001Y-18910439D01*
X-3989560Y-18904353D01*
X-4057006Y-18886281D01*
X-4120287Y-18856772D01*
X-4177484Y-18816723D01*
X-4226858Y-18767349D01*
X-4266907Y-18710152D01*
X-4296416Y-18646871D01*
X-4314488Y-18579425D01*
X-4320574Y-18509866D01*
X-4314488Y-18440307D01*
X-4296416Y-18372861D01*
X-4266907Y-18309580D01*
X-4226858Y-18252383D01*
X-4177484Y-18203009D01*
X-4120287Y-18162960D01*
X-4057006Y-18133451D01*
X-3989560Y-18115379D01*
X-3920001Y-18109293D01*
X-3850442Y-18115379D01*
G37*
G36*
X-6990442Y-18115379D02*
X-6922996Y-18133451D01*
X-6859715Y-18162960D01*
X-6802518Y-18203009D01*
X-6753144Y-18252383D01*
X-6713095Y-18309580D01*
X-6683586Y-18372861D01*
X-6665514Y-18440307D01*
X-6659428Y-18509866D01*
X-6665514Y-18579425D01*
X-6683586Y-18646871D01*
X-6713095Y-18710152D01*
X-6753144Y-18767349D01*
X-6802518Y-18816723D01*
X-6859715Y-18856772D01*
X-6922996Y-18886281D01*
X-6990442Y-18904353D01*
X-7060001Y-18910439D01*
X-7129560Y-18904353D01*
X-7197006Y-18886281D01*
X-7260287Y-18856772D01*
X-7317484Y-18816723D01*
X-7366858Y-18767349D01*
X-7406907Y-18710152D01*
X-7436416Y-18646871D01*
X-7454488Y-18579425D01*
X-7460574Y-18509866D01*
X-7454488Y-18440307D01*
X-7436416Y-18372861D01*
X-7406907Y-18309580D01*
X-7366858Y-18252383D01*
X-7317484Y-18203009D01*
X-7260287Y-18162960D01*
X-7197006Y-18133451D01*
X-7129560Y-18115379D01*
X-7060001Y-18109293D01*
X-6990442Y-18115379D01*
G37*
G36*
X-5390442Y-18115379D02*
X-5322996Y-18133451D01*
X-5259715Y-18162960D01*
X-5202518Y-18203009D01*
X-5153144Y-18252383D01*
X-5113095Y-18309580D01*
X-5083586Y-18372861D01*
X-5065514Y-18440307D01*
X-5059428Y-18509866D01*
X-5065514Y-18579425D01*
X-5083586Y-18646871D01*
X-5113095Y-18710152D01*
X-5153144Y-18767349D01*
X-5202518Y-18816723D01*
X-5259715Y-18856772D01*
X-5322996Y-18886281D01*
X-5390442Y-18904353D01*
X-5460001Y-18910439D01*
X-5529560Y-18904353D01*
X-5597006Y-18886281D01*
X-5660287Y-18856772D01*
X-5717484Y-18816723D01*
X-5766858Y-18767349D01*
X-5806907Y-18710152D01*
X-5836416Y-18646871D01*
X-5854488Y-18579425D01*
X-5860574Y-18509866D01*
X-5854488Y-18440307D01*
X-5836416Y-18372861D01*
X-5806907Y-18309580D01*
X-5766858Y-18252383D01*
X-5717484Y-18203009D01*
X-5660287Y-18162960D01*
X-5597006Y-18133451D01*
X-5529560Y-18115379D01*
X-5460001Y-18109293D01*
X-5390442Y-18115379D01*
G37*
G36*
X-11188440Y-12751514D02*
X-11120994Y-12769586D01*
X-11057713Y-12799095D01*
X-11000516Y-12839144D01*
X-10951142Y-12888518D01*
X-10911093Y-12945715D01*
X-10881584Y-13008996D01*
X-10863512Y-13076442D01*
X-10857426Y-13146001D01*
X-10863512Y-13215560D01*
X-10881584Y-13283006D01*
X-10911093Y-13346287D01*
X-10951142Y-13403484D01*
X-11000516Y-13452858D01*
X-11057713Y-13492907D01*
X-11120994Y-13522416D01*
X-11188440Y-13540488D01*
X-11257999Y-13546574D01*
X-11327558Y-13540488D01*
X-11395004Y-13522416D01*
X-11458285Y-13492907D01*
X-11515482Y-13452858D01*
X-11564856Y-13403484D01*
X-11604905Y-13346287D01*
X-11634414Y-13283006D01*
X-11652486Y-13215560D01*
X-11658572Y-13146001D01*
X-11652486Y-13076442D01*
X-11634414Y-13008996D01*
X-11604905Y-12945715D01*
X-11564856Y-12888518D01*
X-11515482Y-12839144D01*
X-11458285Y-12799095D01*
X-11395004Y-12769586D01*
X-11327558Y-12751514D01*
X-11257999Y-12745428D01*
X-11188440Y-12751514D01*
G37*
G36*
X-11188440Y-11112512D02*
X-11120994Y-11130584D01*
X-11057713Y-11160093D01*
X-11000516Y-11200142D01*
X-10951142Y-11249516D01*
X-10911093Y-11306713D01*
X-10881584Y-11369994D01*
X-10863512Y-11437440D01*
X-10857426Y-11506999D01*
X-10863512Y-11576558D01*
X-10881584Y-11644004D01*
X-10911093Y-11707285D01*
X-10951142Y-11764482D01*
X-11000516Y-11813856D01*
X-11057713Y-11853905D01*
X-11120994Y-11883414D01*
X-11188440Y-11901486D01*
X-11257999Y-11907572D01*
X-11327558Y-11901486D01*
X-11395004Y-11883414D01*
X-11458285Y-11853905D01*
X-11515482Y-11813856D01*
X-11564856Y-11764482D01*
X-11604905Y-11707285D01*
X-11634414Y-11644004D01*
X-11652486Y-11576558D01*
X-11658572Y-11506999D01*
X-11652486Y-11437440D01*
X-11634414Y-11369994D01*
X-11604905Y-11306713D01*
X-11564856Y-11249516D01*
X-11515482Y-11200142D01*
X-11458285Y-11160093D01*
X-11395004Y-11130584D01*
X-11327558Y-11112512D01*
X-11257999Y-11106426D01*
X-11188440Y-11112512D01*
G37*
G36*
X-11188440Y-9517514D02*
X-11120994Y-9535586D01*
X-11057713Y-9565095D01*
X-11000516Y-9605144D01*
X-10951142Y-9654518D01*
X-10911093Y-9711715D01*
X-10881584Y-9774996D01*
X-10863512Y-9842442D01*
X-10857426Y-9912001D01*
X-10863512Y-9981560D01*
X-10881584Y-10049006D01*
X-10911093Y-10112287D01*
X-10951142Y-10169484D01*
X-11000516Y-10218858D01*
X-11057713Y-10258907D01*
X-11120994Y-10288416D01*
X-11188440Y-10306488D01*
X-11257999Y-10312574D01*
X-11327558Y-10306488D01*
X-11395004Y-10288416D01*
X-11458285Y-10258907D01*
X-11515482Y-10218858D01*
X-11564856Y-10169484D01*
X-11604905Y-10112287D01*
X-11634414Y-10049006D01*
X-11652486Y-9981560D01*
X-11658572Y-9912001D01*
X-11652486Y-9842442D01*
X-11634414Y-9774996D01*
X-11604905Y-9711715D01*
X-11564856Y-9654518D01*
X-11515482Y-9605144D01*
X-11458285Y-9565095D01*
X-11395004Y-9535586D01*
X-11327558Y-9517514D01*
X-11257999Y-9511428D01*
X-11188440Y-9517514D01*
G37*
G36*
X11976559Y-5328380D02*
X12044005Y-5346452D01*
X12107286Y-5375961D01*
X12164483Y-5416010D01*
X12213857Y-5465384D01*
X12253906Y-5522581D01*
X12283415Y-5585862D01*
X12301487Y-5653308D01*
X12307573Y-5722867D01*
X12301487Y-5792426D01*
X12283415Y-5859872D01*
X12253906Y-5923153D01*
X12213857Y-5980350D01*
X12164483Y-6029724D01*
X12107286Y-6069773D01*
X12044005Y-6099282D01*
X11976559Y-6117354D01*
X11907000Y-6123440D01*
X11837441Y-6117354D01*
X11769995Y-6099282D01*
X11706714Y-6069773D01*
X11649517Y-6029724D01*
X11600143Y-5980350D01*
X11560094Y-5923153D01*
X11530585Y-5859872D01*
X11512513Y-5792426D01*
X11506427Y-5722867D01*
X11512513Y-5653308D01*
X11530585Y-5585862D01*
X11560094Y-5522581D01*
X11600143Y-5465384D01*
X11649517Y-5416010D01*
X11706714Y-5375961D01*
X11769995Y-5346452D01*
X11837441Y-5328380D01*
X11907000Y-5322294D01*
X11976559Y-5328380D01*
G37*
G36*
X10266559Y-5328380D02*
X10334005Y-5346452D01*
X10397286Y-5375961D01*
X10454483Y-5416010D01*
X10503857Y-5465384D01*
X10543906Y-5522581D01*
X10573415Y-5585862D01*
X10591487Y-5653308D01*
X10597573Y-5722867D01*
X10591487Y-5792426D01*
X10573415Y-5859872D01*
X10543906Y-5923153D01*
X10503857Y-5980350D01*
X10454483Y-6029724D01*
X10397286Y-6069773D01*
X10334005Y-6099282D01*
X10266559Y-6117354D01*
X10197000Y-6123440D01*
X10127441Y-6117354D01*
X10059995Y-6099282D01*
X9996714Y-6069773D01*
X9939517Y-6029724D01*
X9890143Y-5980350D01*
X9850094Y-5923153D01*
X9820585Y-5859872D01*
X9802513Y-5792426D01*
X9796427Y-5722867D01*
X9802513Y-5653308D01*
X9820585Y-5585862D01*
X9850094Y-5522581D01*
X9890143Y-5465384D01*
X9939517Y-5416010D01*
X9996714Y-5375961D01*
X10059995Y-5346452D01*
X10127441Y-5328380D01*
X10197000Y-5322294D01*
X10266559Y-5328380D01*
G37*
G36*
X13566559Y-5328380D02*
X13634005Y-5346452D01*
X13697286Y-5375961D01*
X13754483Y-5416010D01*
X13803857Y-5465384D01*
X13843906Y-5522581D01*
X13873415Y-5585862D01*
X13891487Y-5653308D01*
X13897573Y-5722867D01*
X13891487Y-5792426D01*
X13873415Y-5859872D01*
X13843906Y-5923153D01*
X13803857Y-5980350D01*
X13754483Y-6029724D01*
X13697286Y-6069773D01*
X13634005Y-6099282D01*
X13566559Y-6117354D01*
X13497000Y-6123440D01*
X13427441Y-6117354D01*
X13359995Y-6099282D01*
X13296714Y-6069773D01*
X13239517Y-6029724D01*
X13190143Y-5980350D01*
X13150094Y-5923153D01*
X13120585Y-5859872D01*
X13102513Y-5792426D01*
X13096427Y-5722867D01*
X13102513Y-5653308D01*
X13120585Y-5585862D01*
X13150094Y-5522581D01*
X13190143Y-5465384D01*
X13239517Y-5416010D01*
X13296714Y-5375961D01*
X13359995Y-5346452D01*
X13427441Y-5328380D01*
X13497000Y-5322294D01*
X13566559Y-5328380D01*
G37*
G36*
X-19260441Y-4598513D02*
X-19192995Y-4616585D01*
X-19129714Y-4646094D01*
X-19072517Y-4686143D01*
X-19023143Y-4735517D01*
X-18983094Y-4792714D01*
X-18953585Y-4855995D01*
X-18935513Y-4923441D01*
X-18929427Y-4993000D01*
X-18935513Y-5062559D01*
X-18953585Y-5130005D01*
X-18983094Y-5193286D01*
X-19023143Y-5250483D01*
X-19072517Y-5299857D01*
X-19129714Y-5339906D01*
X-19192995Y-5369415D01*
X-19260441Y-5387487D01*
X-19330000Y-5393573D01*
X-19399559Y-5387487D01*
X-19467005Y-5369415D01*
X-19530286Y-5339906D01*
X-19587483Y-5299857D01*
X-19636857Y-5250483D01*
X-19676906Y-5193286D01*
X-19706415Y-5130005D01*
X-19724487Y-5062559D01*
X-19730573Y-4993000D01*
X-19724487Y-4923441D01*
X-19706415Y-4855995D01*
X-19676906Y-4792714D01*
X-19636857Y-4735517D01*
X-19587483Y-4686143D01*
X-19530286Y-4646094D01*
X-19467005Y-4616585D01*
X-19399559Y-4598513D01*
X-19330000Y-4592427D01*
X-19260441Y-4598513D01*
G37*
G36*
X-16400441Y-4598513D02*
X-16332995Y-4616585D01*
X-16269714Y-4646094D01*
X-16212517Y-4686143D01*
X-16163143Y-4735517D01*
X-16123094Y-4792714D01*
X-16093585Y-4855995D01*
X-16075513Y-4923441D01*
X-16069427Y-4993000D01*
X-16075513Y-5062559D01*
X-16093585Y-5130005D01*
X-16123094Y-5193286D01*
X-16163143Y-5250483D01*
X-16212517Y-5299857D01*
X-16269714Y-5339906D01*
X-16332995Y-5369415D01*
X-16400441Y-5387487D01*
X-16470000Y-5393573D01*
X-16539559Y-5387487D01*
X-16607005Y-5369415D01*
X-16670286Y-5339906D01*
X-16727483Y-5299857D01*
X-16776857Y-5250483D01*
X-16816906Y-5193286D01*
X-16846415Y-5130005D01*
X-16864487Y-5062559D01*
X-16870573Y-4993000D01*
X-16864487Y-4923441D01*
X-16846415Y-4855995D01*
X-16816906Y-4792714D01*
X-16776857Y-4735517D01*
X-16727483Y-4686143D01*
X-16670286Y-4646094D01*
X-16607005Y-4616585D01*
X-16539559Y-4598513D01*
X-16470000Y-4592427D01*
X-16400441Y-4598513D01*
G37*
G36*
X-17830441Y-4598513D02*
X-17762995Y-4616585D01*
X-17699714Y-4646094D01*
X-17642517Y-4686143D01*
X-17593143Y-4735517D01*
X-17553094Y-4792714D01*
X-17523585Y-4855995D01*
X-17505513Y-4923441D01*
X-17499427Y-4993000D01*
X-17505513Y-5062559D01*
X-17523585Y-5130005D01*
X-17553094Y-5193286D01*
X-17593143Y-5250483D01*
X-17642517Y-5299857D01*
X-17699714Y-5339906D01*
X-17762995Y-5369415D01*
X-17830441Y-5387487D01*
X-17900000Y-5393573D01*
X-17969559Y-5387487D01*
X-18037005Y-5369415D01*
X-18100286Y-5339906D01*
X-18157483Y-5299857D01*
X-18206857Y-5250483D01*
X-18246906Y-5193286D01*
X-18276415Y-5130005D01*
X-18294487Y-5062559D01*
X-18300573Y-4993000D01*
X-18294487Y-4923441D01*
X-18276415Y-4855995D01*
X-18246906Y-4792714D01*
X-18206857Y-4735517D01*
X-18157483Y-4686143D01*
X-18100286Y-4646094D01*
X-18037005Y-4616585D01*
X-17969559Y-4598513D01*
X-17900000Y-4592427D01*
X-17830441Y-4598513D01*
G37*
G36*
X22979559Y5211620D02*
X23047005Y5193548D01*
X23110286Y5164039D01*
X23167483Y5123990D01*
X23216857Y5074616D01*
X23256906Y5017419D01*
X23286415Y4954138D01*
X23304487Y4886692D01*
X23310573Y4817133D01*
X23304487Y4747574D01*
X23286415Y4680128D01*
X23256906Y4616847D01*
X23216857Y4559650D01*
X23167483Y4510276D01*
X23110286Y4470227D01*
X23047005Y4440718D01*
X22979559Y4422646D01*
X22910000Y4416560D01*
X22840441Y4422646D01*
X22772995Y4440718D01*
X22709714Y4470227D01*
X22652517Y4510276D01*
X22603143Y4559650D01*
X22563094Y4616847D01*
X22533585Y4680128D01*
X22515513Y4747574D01*
X22509427Y4817133D01*
X22515513Y4886692D01*
X22533585Y4954138D01*
X22563094Y5017419D01*
X22603143Y5074616D01*
X22652517Y5123990D01*
X22709714Y5164039D01*
X22772995Y5193548D01*
X22840441Y5211620D01*
X22910000Y5217706D01*
X22979559Y5211620D01*
G37*
G36*
X26459559Y5211620D02*
X26527005Y5193548D01*
X26590286Y5164039D01*
X26647483Y5123990D01*
X26696857Y5074616D01*
X26736906Y5017419D01*
X26766415Y4954138D01*
X26784487Y4886692D01*
X26790573Y4817133D01*
X26784487Y4747574D01*
X26766415Y4680128D01*
X26736906Y4616847D01*
X26696857Y4559650D01*
X26647483Y4510276D01*
X26590286Y4470227D01*
X26527005Y4440718D01*
X26459559Y4422646D01*
X26390000Y4416560D01*
X26320441Y4422646D01*
X26252995Y4440718D01*
X26189714Y4470227D01*
X26132517Y4510276D01*
X26083143Y4559650D01*
X26043094Y4616847D01*
X26013585Y4680128D01*
X25995513Y4747574D01*
X25989427Y4817133D01*
X25995513Y4886692D01*
X26013585Y4954138D01*
X26043094Y5017419D01*
X26083143Y5074616D01*
X26132517Y5123990D01*
X26189714Y5164039D01*
X26252995Y5193548D01*
X26320441Y5211620D01*
X26390000Y5217706D01*
X26459559Y5211620D01*
G37*
G36*
X24719559Y5211620D02*
X24787005Y5193548D01*
X24850286Y5164039D01*
X24907483Y5123990D01*
X24956857Y5074616D01*
X24996906Y5017419D01*
X25026415Y4954138D01*
X25044487Y4886692D01*
X25050573Y4817133D01*
X25044487Y4747574D01*
X25026415Y4680128D01*
X24996906Y4616847D01*
X24956857Y4559650D01*
X24907483Y4510276D01*
X24850286Y4470227D01*
X24787005Y4440718D01*
X24719559Y4422646D01*
X24650000Y4416560D01*
X24580441Y4422646D01*
X24512995Y4440718D01*
X24449714Y4470227D01*
X24392517Y4510276D01*
X24343143Y4559650D01*
X24303094Y4616847D01*
X24273585Y4680128D01*
X24255513Y4747574D01*
X24249427Y4817133D01*
X24255513Y4886692D01*
X24273585Y4954138D01*
X24303094Y5017419D01*
X24343143Y5074616D01*
X24392517Y5123990D01*
X24449714Y5164039D01*
X24512995Y5193548D01*
X24580441Y5211620D01*
X24650000Y5217706D01*
X24719559Y5211620D01*
G37*
G36*
X-30820441Y7061487D02*
X-30752995Y7043415D01*
X-30689714Y7013906D01*
X-30632517Y6973857D01*
X-30583143Y6924483D01*
X-30543094Y6867286D01*
X-30513585Y6804005D01*
X-30495513Y6736559D01*
X-30489427Y6667000D01*
X-30495513Y6597441D01*
X-30513585Y6529995D01*
X-30543094Y6466714D01*
X-30583143Y6409517D01*
X-30632517Y6360143D01*
X-30689714Y6320094D01*
X-30752995Y6290585D01*
X-30820441Y6272513D01*
X-30890000Y6266427D01*
X-30959559Y6272513D01*
X-31027005Y6290585D01*
X-31090286Y6320094D01*
X-31147483Y6360143D01*
X-31196857Y6409517D01*
X-31236906Y6466714D01*
X-31266415Y6529995D01*
X-31284487Y6597441D01*
X-31290573Y6667000D01*
X-31284487Y6736559D01*
X-31266415Y6804005D01*
X-31236906Y6867286D01*
X-31196857Y6924483D01*
X-31147483Y6973857D01*
X-31090286Y7013906D01*
X-31027005Y7043415D01*
X-30959559Y7061487D01*
X-30890000Y7067573D01*
X-30820441Y7061487D01*
G37*
G36*
X-29080441Y7061487D02*
X-29012995Y7043415D01*
X-28949714Y7013906D01*
X-28892517Y6973857D01*
X-28843143Y6924483D01*
X-28803094Y6867286D01*
X-28773585Y6804005D01*
X-28755513Y6736559D01*
X-28749427Y6667000D01*
X-28755513Y6597441D01*
X-28773585Y6529995D01*
X-28803094Y6466714D01*
X-28843143Y6409517D01*
X-28892517Y6360143D01*
X-28949714Y6320094D01*
X-29012995Y6290585D01*
X-29080441Y6272513D01*
X-29150000Y6266427D01*
X-29219559Y6272513D01*
X-29287005Y6290585D01*
X-29350286Y6320094D01*
X-29407483Y6360143D01*
X-29456857Y6409517D01*
X-29496906Y6466714D01*
X-29526415Y6529995D01*
X-29544487Y6597441D01*
X-29550573Y6667000D01*
X-29544487Y6736559D01*
X-29526415Y6804005D01*
X-29496906Y6867286D01*
X-29456857Y6924483D01*
X-29407483Y6973857D01*
X-29350286Y7013906D01*
X-29287005Y7043415D01*
X-29219559Y7061487D01*
X-29150000Y7067573D01*
X-29080441Y7061487D01*
G37*
G36*
X-27340441Y7061487D02*
X-27272995Y7043415D01*
X-27209714Y7013906D01*
X-27152517Y6973857D01*
X-27103143Y6924483D01*
X-27063094Y6867286D01*
X-27033585Y6804005D01*
X-27015513Y6736559D01*
X-27009427Y6667000D01*
X-27015513Y6597441D01*
X-27033585Y6529995D01*
X-27063094Y6466714D01*
X-27103143Y6409517D01*
X-27152517Y6360143D01*
X-27209714Y6320094D01*
X-27272995Y6290585D01*
X-27340441Y6272513D01*
X-27410000Y6266427D01*
X-27479559Y6272513D01*
X-27547005Y6290585D01*
X-27610286Y6320094D01*
X-27667483Y6360143D01*
X-27716857Y6409517D01*
X-27756906Y6466714D01*
X-27786415Y6529995D01*
X-27804487Y6597441D01*
X-27810573Y6667000D01*
X-27804487Y6736559D01*
X-27786415Y6804005D01*
X-27756906Y6867286D01*
X-27716857Y6924483D01*
X-27667483Y6973857D01*
X-27610286Y7013906D01*
X-27547005Y7043415D01*
X-27479559Y7061487D01*
X-27410000Y7067573D01*
X-27340441Y7061487D01*
G37*
G36*
X18669559Y7301620D02*
X18737005Y7283548D01*
X18800286Y7254039D01*
X18857483Y7213990D01*
X18906857Y7164616D01*
X18946906Y7107419D01*
X18976415Y7044138D01*
X18994487Y6976692D01*
X19000573Y6907133D01*
X18994487Y6837574D01*
X18976415Y6770128D01*
X18946906Y6706847D01*
X18906857Y6649650D01*
X18857483Y6600276D01*
X18800286Y6560227D01*
X18737005Y6530718D01*
X18669559Y6512646D01*
X18600000Y6506560D01*
X18530441Y6512646D01*
X18462995Y6530718D01*
X18399714Y6560227D01*
X18342517Y6600276D01*
X18293143Y6649650D01*
X18253094Y6706847D01*
X18223585Y6770128D01*
X18205513Y6837574D01*
X18199427Y6907133D01*
X18205513Y6976692D01*
X18223585Y7044138D01*
X18253094Y7107419D01*
X18293143Y7164616D01*
X18342517Y7213990D01*
X18399714Y7254039D01*
X18462995Y7283548D01*
X18530441Y7301620D01*
X18600000Y7307706D01*
X18669559Y7301620D01*
G37*
G36*
X15669559Y7301620D02*
X15737005Y7283548D01*
X15800286Y7254039D01*
X15857483Y7213990D01*
X15906857Y7164616D01*
X15946906Y7107419D01*
X15976415Y7044138D01*
X15994487Y6976692D01*
X16000573Y6907133D01*
X15994487Y6837574D01*
X15976415Y6770128D01*
X15946906Y6706847D01*
X15906857Y6649650D01*
X15857483Y6600276D01*
X15800286Y6560227D01*
X15737005Y6530718D01*
X15669559Y6512646D01*
X15600000Y6506560D01*
X15530441Y6512646D01*
X15462995Y6530718D01*
X15399714Y6560227D01*
X15342517Y6600276D01*
X15293143Y6649650D01*
X15253094Y6706847D01*
X15223585Y6770128D01*
X15205513Y6837574D01*
X15199427Y6907133D01*
X15205513Y6976692D01*
X15223585Y7044138D01*
X15253094Y7107419D01*
X15293143Y7164616D01*
X15342517Y7213990D01*
X15399714Y7254039D01*
X15462995Y7283548D01*
X15530441Y7301620D01*
X15600000Y7307706D01*
X15669559Y7301620D01*
G37*
G36*
X17169559Y7301620D02*
X17237005Y7283548D01*
X17300286Y7254039D01*
X17357483Y7213990D01*
X17406857Y7164616D01*
X17446906Y7107419D01*
X17476415Y7044138D01*
X17494487Y6976692D01*
X17500573Y6907133D01*
X17494487Y6837574D01*
X17476415Y6770128D01*
X17446906Y6706847D01*
X17406857Y6649650D01*
X17357483Y6600276D01*
X17300286Y6560227D01*
X17237005Y6530718D01*
X17169559Y6512646D01*
X17100000Y6506560D01*
X17030441Y6512646D01*
X16962995Y6530718D01*
X16899714Y6560227D01*
X16842517Y6600276D01*
X16793143Y6649650D01*
X16753094Y6706847D01*
X16723585Y6770128D01*
X16705513Y6837574D01*
X16699427Y6907133D01*
X16705513Y6976692D01*
X16723585Y7044138D01*
X16753094Y7107419D01*
X16793143Y7164616D01*
X16842517Y7213990D01*
X16899714Y7254039D01*
X16962995Y7283548D01*
X17030441Y7301620D01*
X17100000Y7307706D01*
X17169559Y7301620D01*
G37*
G36*
X-8789906Y10076487D02*
X-8722460Y10058415D01*
X-8659179Y10028906D01*
X-8601982Y9988857D01*
X-8552608Y9939483D01*
X-8512559Y9882286D01*
X-8483050Y9819005D01*
X-8464978Y9751559D01*
X-8458892Y9682000D01*
X-8464978Y9612441D01*
X-8483050Y9544995D01*
X-8512559Y9481714D01*
X-8552608Y9424517D01*
X-8601982Y9375143D01*
X-8659179Y9335094D01*
X-8722460Y9305585D01*
X-8789906Y9287513D01*
X-8859465Y9281427D01*
X-8929024Y9287513D01*
X-8996470Y9305585D01*
X-9059751Y9335094D01*
X-9116948Y9375143D01*
X-9166322Y9424517D01*
X-9206371Y9481714D01*
X-9235880Y9544995D01*
X-9253952Y9612441D01*
X-9260038Y9682000D01*
X-9253952Y9751559D01*
X-9235880Y9819005D01*
X-9206371Y9882286D01*
X-9166322Y9939483D01*
X-9116948Y9988857D01*
X-9059751Y10028906D01*
X-8996470Y10058415D01*
X-8929024Y10076487D01*
X-8859465Y10082573D01*
X-8789906Y10076487D01*
G37*
G36*
X-7289906Y10076621D02*
X-7222460Y10058549D01*
X-7159179Y10029040D01*
X-7101982Y9988991D01*
X-7052608Y9939617D01*
X-7012559Y9882420D01*
X-6983050Y9819139D01*
X-6964978Y9751693D01*
X-6958892Y9682134D01*
X-6964978Y9612575D01*
X-6983050Y9545129D01*
X-7012559Y9481848D01*
X-7052608Y9424651D01*
X-7101982Y9375277D01*
X-7159179Y9335228D01*
X-7222460Y9305719D01*
X-7289906Y9287647D01*
X-7359465Y9281561D01*
X-7429024Y9287647D01*
X-7496470Y9305719D01*
X-7559751Y9335228D01*
X-7616948Y9375277D01*
X-7666322Y9424651D01*
X-7706371Y9481848D01*
X-7735880Y9545129D01*
X-7753952Y9612575D01*
X-7760038Y9682134D01*
X-7753952Y9751693D01*
X-7735880Y9819139D01*
X-7706371Y9882420D01*
X-7666322Y9939617D01*
X-7616948Y9988991D01*
X-7559751Y10029040D01*
X-7496470Y10058549D01*
X-7429024Y10076621D01*
X-7359465Y10082707D01*
X-7289906Y10076621D01*
G37*
G36*
X-5789906Y10076621D02*
X-5722460Y10058549D01*
X-5659179Y10029040D01*
X-5601982Y9988991D01*
X-5552608Y9939617D01*
X-5512559Y9882420D01*
X-5483050Y9819139D01*
X-5464978Y9751693D01*
X-5458892Y9682134D01*
X-5464978Y9612575D01*
X-5483050Y9545129D01*
X-5512559Y9481848D01*
X-5552608Y9424651D01*
X-5601982Y9375277D01*
X-5659179Y9335228D01*
X-5722460Y9305719D01*
X-5789906Y9287647D01*
X-5859465Y9281561D01*
X-5929024Y9287647D01*
X-5996470Y9305719D01*
X-6059751Y9335228D01*
X-6116948Y9375277D01*
X-6166322Y9424651D01*
X-6206371Y9481848D01*
X-6235880Y9545129D01*
X-6253952Y9612575D01*
X-6260038Y9682134D01*
X-6253952Y9751693D01*
X-6235880Y9819139D01*
X-6206371Y9882420D01*
X-6166322Y9939617D01*
X-6116948Y9988991D01*
X-6059751Y10029040D01*
X-5996470Y10058549D01*
X-5929024Y10076621D01*
X-5859465Y10082707D01*
X-5789906Y10076621D01*
G37*
G36*
X18669559Y10951620D02*
X18737005Y10933548D01*
X18800286Y10904039D01*
X18857483Y10863990D01*
X18906857Y10814616D01*
X18946906Y10757419D01*
X18976415Y10694138D01*
X18994487Y10626692D01*
X19000573Y10557133D01*
X18994487Y10487574D01*
X18976415Y10420128D01*
X18946906Y10356847D01*
X18906857Y10299650D01*
X18857483Y10250276D01*
X18800286Y10210227D01*
X18737005Y10180718D01*
X18669559Y10162646D01*
X18600000Y10156560D01*
X18530441Y10162646D01*
X18462995Y10180718D01*
X18399714Y10210227D01*
X18342517Y10250276D01*
X18293143Y10299650D01*
X18253094Y10356847D01*
X18223585Y10420128D01*
X18205513Y10487574D01*
X18199427Y10557133D01*
X18205513Y10626692D01*
X18223585Y10694138D01*
X18253094Y10757419D01*
X18293143Y10814616D01*
X18342517Y10863990D01*
X18399714Y10904039D01*
X18462995Y10933548D01*
X18530441Y10951620D01*
X18600000Y10957706D01*
X18669559Y10951620D01*
G37*
G36*
X15669559Y10951620D02*
X15737005Y10933548D01*
X15800286Y10904039D01*
X15857483Y10863990D01*
X15906857Y10814616D01*
X15946906Y10757419D01*
X15976415Y10694138D01*
X15994487Y10626692D01*
X16000573Y10557133D01*
X15994487Y10487574D01*
X15976415Y10420128D01*
X15946906Y10356847D01*
X15906857Y10299650D01*
X15857483Y10250276D01*
X15800286Y10210227D01*
X15737005Y10180718D01*
X15669559Y10162646D01*
X15600000Y10156560D01*
X15530441Y10162646D01*
X15462995Y10180718D01*
X15399714Y10210227D01*
X15342517Y10250276D01*
X15293143Y10299650D01*
X15253094Y10356847D01*
X15223585Y10420128D01*
X15205513Y10487574D01*
X15199427Y10557133D01*
X15205513Y10626692D01*
X15223585Y10694138D01*
X15253094Y10757419D01*
X15293143Y10814616D01*
X15342517Y10863990D01*
X15399714Y10904039D01*
X15462995Y10933548D01*
X15530441Y10951620D01*
X15600000Y10957706D01*
X15669559Y10951620D01*
G37*
G36*
X17169559Y10951620D02*
X17237005Y10933548D01*
X17300286Y10904039D01*
X17357483Y10863990D01*
X17406857Y10814616D01*
X17446906Y10757419D01*
X17476415Y10694138D01*
X17494487Y10626692D01*
X17500573Y10557133D01*
X17494487Y10487574D01*
X17476415Y10420128D01*
X17446906Y10356847D01*
X17406857Y10299650D01*
X17357483Y10250276D01*
X17300286Y10210227D01*
X17237005Y10180718D01*
X17169559Y10162646D01*
X17100000Y10156560D01*
X17030441Y10162646D01*
X16962995Y10180718D01*
X16899714Y10210227D01*
X16842517Y10250276D01*
X16793143Y10299650D01*
X16753094Y10356847D01*
X16723585Y10420128D01*
X16705513Y10487574D01*
X16699427Y10557133D01*
X16705513Y10626692D01*
X16723585Y10694138D01*
X16753094Y10757419D01*
X16793143Y10814616D01*
X16842517Y10863990D01*
X16899714Y10904039D01*
X16962995Y10933548D01*
X17030441Y10951620D01*
X17100000Y10957706D01*
X17169559Y10951620D01*
G37*
G36*
X24719559Y12981620D02*
X24787005Y12963548D01*
X24850286Y12934039D01*
X24907483Y12893990D01*
X24956857Y12844616D01*
X24996906Y12787419D01*
X25026415Y12724138D01*
X25044487Y12656692D01*
X25050573Y12587133D01*
X25044487Y12517574D01*
X25026415Y12450128D01*
X24996906Y12386847D01*
X24956857Y12329650D01*
X24907483Y12280276D01*
X24850286Y12240227D01*
X24787005Y12210718D01*
X24719559Y12192646D01*
X24650000Y12186560D01*
X24580441Y12192646D01*
X24512995Y12210718D01*
X24449714Y12240227D01*
X24392517Y12280276D01*
X24343143Y12329650D01*
X24303094Y12386847D01*
X24273585Y12450128D01*
X24255513Y12517574D01*
X24249427Y12587133D01*
X24255513Y12656692D01*
X24273585Y12724138D01*
X24303094Y12787419D01*
X24343143Y12844616D01*
X24392517Y12893990D01*
X24449714Y12934039D01*
X24512995Y12963548D01*
X24580441Y12981620D01*
X24650000Y12987706D01*
X24719559Y12981620D01*
G37*
G36*
X26459559Y12981620D02*
X26527005Y12963548D01*
X26590286Y12934039D01*
X26647483Y12893990D01*
X26696857Y12844616D01*
X26736906Y12787419D01*
X26766415Y12724138D01*
X26784487Y12656692D01*
X26790573Y12587133D01*
X26784487Y12517574D01*
X26766415Y12450128D01*
X26736906Y12386847D01*
X26696857Y12329650D01*
X26647483Y12280276D01*
X26590286Y12240227D01*
X26527005Y12210718D01*
X26459559Y12192646D01*
X26390000Y12186560D01*
X26320441Y12192646D01*
X26252995Y12210718D01*
X26189714Y12240227D01*
X26132517Y12280276D01*
X26083143Y12329650D01*
X26043094Y12386847D01*
X26013585Y12450128D01*
X25995513Y12517574D01*
X25989427Y12587133D01*
X25995513Y12656692D01*
X26013585Y12724138D01*
X26043094Y12787419D01*
X26083143Y12844616D01*
X26132517Y12893990D01*
X26189714Y12934039D01*
X26252995Y12963548D01*
X26320441Y12981620D01*
X26390000Y12987706D01*
X26459559Y12981620D01*
G37*
G36*
X22979559Y12981620D02*
X23047005Y12963548D01*
X23110286Y12934039D01*
X23167483Y12893990D01*
X23216857Y12844616D01*
X23256906Y12787419D01*
X23286415Y12724138D01*
X23304487Y12656692D01*
X23310573Y12587133D01*
X23304487Y12517574D01*
X23286415Y12450128D01*
X23256906Y12386847D01*
X23216857Y12329650D01*
X23167483Y12280276D01*
X23110286Y12240227D01*
X23047005Y12210718D01*
X22979559Y12192646D01*
X22910000Y12186560D01*
X22840441Y12192646D01*
X22772995Y12210718D01*
X22709714Y12240227D01*
X22652517Y12280276D01*
X22603143Y12329650D01*
X22563094Y12386847D01*
X22533585Y12450128D01*
X22515513Y12517574D01*
X22509427Y12587133D01*
X22515513Y12656692D01*
X22533585Y12724138D01*
X22563094Y12787419D01*
X22603143Y12844616D01*
X22652517Y12893990D01*
X22709714Y12934039D01*
X22772995Y12963548D01*
X22840441Y12981620D01*
X22910000Y12987706D01*
X22979559Y12981620D01*
G37*
G36*
X-30730441Y14871487D02*
X-30662995Y14853415D01*
X-30599714Y14823906D01*
X-30542517Y14783857D01*
X-30493143Y14734483D01*
X-30453094Y14677286D01*
X-30423585Y14614005D01*
X-30405513Y14546559D01*
X-30399427Y14477000D01*
X-30405513Y14407441D01*
X-30423585Y14339995D01*
X-30453094Y14276714D01*
X-30493143Y14219517D01*
X-30542517Y14170143D01*
X-30599714Y14130094D01*
X-30662995Y14100585D01*
X-30730441Y14082513D01*
X-30800000Y14076427D01*
X-30869559Y14082513D01*
X-30937005Y14100585D01*
X-31000286Y14130094D01*
X-31057483Y14170143D01*
X-31106857Y14219517D01*
X-31146906Y14276714D01*
X-31176415Y14339995D01*
X-31194487Y14407441D01*
X-31200573Y14477000D01*
X-31194487Y14546559D01*
X-31176415Y14614005D01*
X-31146906Y14677286D01*
X-31106857Y14734483D01*
X-31057483Y14783857D01*
X-31000286Y14823906D01*
X-30937005Y14853415D01*
X-30869559Y14871487D01*
X-30800000Y14877573D01*
X-30730441Y14871487D01*
G37*
G36*
X-29090441Y14871487D02*
X-29022995Y14853415D01*
X-28959714Y14823906D01*
X-28902517Y14783857D01*
X-28853143Y14734483D01*
X-28813094Y14677286D01*
X-28783585Y14614005D01*
X-28765513Y14546559D01*
X-28759427Y14477000D01*
X-28765513Y14407441D01*
X-28783585Y14339995D01*
X-28813094Y14276714D01*
X-28853143Y14219517D01*
X-28902517Y14170143D01*
X-28959714Y14130094D01*
X-29022995Y14100585D01*
X-29090441Y14082513D01*
X-29160000Y14076427D01*
X-29229559Y14082513D01*
X-29297005Y14100585D01*
X-29360286Y14130094D01*
X-29417483Y14170143D01*
X-29466857Y14219517D01*
X-29506906Y14276714D01*
X-29536415Y14339995D01*
X-29554487Y14407441D01*
X-29560573Y14477000D01*
X-29554487Y14546559D01*
X-29536415Y14614005D01*
X-29506906Y14677286D01*
X-29466857Y14734483D01*
X-29417483Y14783857D01*
X-29360286Y14823906D01*
X-29297005Y14853415D01*
X-29229559Y14871487D01*
X-29160000Y14877573D01*
X-29090441Y14871487D01*
G37*
G36*
X-27440441Y14871487D02*
X-27372995Y14853415D01*
X-27309714Y14823906D01*
X-27252517Y14783857D01*
X-27203143Y14734483D01*
X-27163094Y14677286D01*
X-27133585Y14614005D01*
X-27115513Y14546559D01*
X-27109427Y14477000D01*
X-27115513Y14407441D01*
X-27133585Y14339995D01*
X-27163094Y14276714D01*
X-27203143Y14219517D01*
X-27252517Y14170143D01*
X-27309714Y14130094D01*
X-27372995Y14100585D01*
X-27440441Y14082513D01*
X-27510000Y14076427D01*
X-27579559Y14082513D01*
X-27647005Y14100585D01*
X-27710286Y14130094D01*
X-27767483Y14170143D01*
X-27816857Y14219517D01*
X-27856906Y14276714D01*
X-27886415Y14339995D01*
X-27904487Y14407441D01*
X-27910573Y14477000D01*
X-27904487Y14546559D01*
X-27886415Y14614005D01*
X-27856906Y14677286D01*
X-27816857Y14734483D01*
X-27767483Y14783857D01*
X-27710286Y14823906D01*
X-27647005Y14853415D01*
X-27579559Y14871487D01*
X-27510000Y14877573D01*
X-27440441Y14871487D01*
G37*
G36*
X17750000Y8107133D02*
X16450000D01*
Y8357133D01*
X17750000D01*
Y8107133D01*
G37*
G36*
X18100000Y8582133D02*
X17850000D01*
Y8882133D01*
X18100000D01*
Y8582133D01*
G37*
G36*
X16350000Y8582133D02*
X16100000D01*
Y8882133D01*
X16350000D01*
Y8582133D01*
G37*
G36*
X17750000Y9107133D02*
X16450000D01*
Y9357133D01*
X17750000D01*
Y9107133D01*
G37*
G04 End of Data *
M02*
